# xmcd
# 
# Track frame offsets:
#     150
#     12722
#     37545
#     49164
#     66082
#     80941
#     96718
#     117995
#     133650
#     151135
#     172201
#     187387
#     204214
#     221282
# 
# Disc length: 3174
# 
# Revision: 2
# Processed by: cddbd v1.5.2PL0 Copyright (c) Steve Scherf et al.
# Submitted via: fre:ac v1.0.17
# 
DISCID=ce0c640e
DTITLE=Jonas Fjeld - Hjemmeserier
DYEAR=2011
DGENRE=Rock
TTITLE0=Vi Danser (Men Magien Er Vekk)
TTITLE1=Pyro
TTITLE2=Et Barn Blir Gitt
TTITLE3=Hjemmeseier
TTITLE4=Ryggen Fri
TTITLE5=Elektrisk Drill
TTITLE6=Hydra (Med Ole Paus)
TTITLE7=Sanndrømt
TTITLE8=Veien (Med Grete Preus)
TTITLE9=Svart Hund
TTITLE10=Ubuntu
TTITLE11=For Mye Stil
TTITLE12=Dønn Stille Fra Hamar
TTITLE13=Støvets År
EXTD=
EXTT0=
EXTT1=
EXTT2=
EXTT3=
EXTT4=
EXTT5=
EXTT6=
EXTT7=
EXTT8=
EXTT9=
EXTT10=
EXTT11=
EXTT12=
EXTT13=
PLAYORDER=
